<svg width="30" height="30" viewBox="0 0 24 20" fill="none" xmlns="http://www.w3.org/2000/svg">
<path d="M20.3175 2.36056C18.7613 1.64636 17.1191 1.13662 15.432 0.84406C15.4167 0.841485 15.401 0.843709 15.387 0.850424C15.3731 0.857139 15.3615 0.868016 15.354 0.881559C15.1425 1.25656 14.9085 1.74706 14.745 2.13106C12.9264 1.85507 11.0766 1.85507 9.25799 2.13106C9.07561 1.70329 8.86928 1.28613 8.63999 0.881559C8.6323 0.868164 8.62073 0.857412 8.60681 0.850719C8.59288 0.844025 8.57726 0.841704 8.56199 0.84406C6.87449 1.13506 5.23199 1.64506 3.67649 2.36056C3.66318 2.36564 3.65205 2.37518 3.64499 2.38756C0.533994 7.03606 -0.319506 11.5706 0.0989939 16.0481C0.100494 16.0691 0.113994 16.0901 0.130494 16.1036C1.94208 17.4455 3.96838 18.47 6.12299 19.1336C6.13821 19.1384 6.15455 19.1382 6.16966 19.1331C6.18476 19.1279 6.19784 19.1181 6.20699 19.1051C6.66899 18.4751 7.07999 17.8106 7.43399 17.1116C7.44137 17.0972 7.4439 17.0808 7.4412 17.0648C7.43849 17.0489 7.4307 17.0342 7.41899 17.0231C7.41124 17.0157 7.40205 17.0101 7.39199 17.0066C6.74574 16.7582 6.11984 16.4598 5.51999 16.1141C5.50324 16.1046 5.49078 16.089 5.48519 16.0706C5.47961 16.0521 5.48133 16.0323 5.48999 16.0151C5.4951 16.0039 5.50282 15.9941 5.51249 15.9866C5.63849 15.8921 5.76449 15.7931 5.88449 15.6941C5.89509 15.6855 5.90781 15.6801 5.92129 15.6782C5.93476 15.6764 5.94849 15.6782 5.96099 15.6836C9.88949 17.4776 14.142 17.4776 18.0225 15.6836C18.0355 15.6779 18.0497 15.676 18.0637 15.6778C18.0777 15.6797 18.0909 15.6853 18.102 15.6941C18.222 15.7931 18.348 15.8921 18.474 15.9866C18.4842 15.994 18.4924 16.0039 18.4979 16.0153C18.5033 16.0267 18.5059 16.0393 18.5053 16.0519C18.5047 16.0646 18.501 16.0768 18.4945 16.0877C18.488 16.0985 18.4789 16.1076 18.468 16.1141C17.8695 16.4629 17.2428 16.761 16.5945 17.0051C16.5842 17.0088 16.5748 17.0148 16.567 17.0226C16.5592 17.0303 16.5532 17.0397 16.5495 17.0501C16.546 17.0601 16.5446 17.0707 16.5454 17.0813C16.5462 17.0918 16.5491 17.1022 16.554 17.1116C16.914 17.8091 17.3265 18.4751 17.7795 19.1051C17.7886 19.1181 17.8017 19.1279 17.8168 19.1331C17.8319 19.1382 17.8483 19.1384 17.8635 19.1336C20.0217 18.4721 22.0513 17.4474 23.865 16.1036C23.8741 16.0973 23.8816 16.089 23.8871 16.0794C23.8925 16.0698 23.8958 16.0591 23.8965 16.0481C24.3975 10.8716 23.058 6.37456 20.3475 2.38906C20.3448 2.38248 20.3407 2.37654 20.3355 2.37163C20.3303 2.36672 20.3242 2.36295 20.3175 2.36056V2.36056ZM8.02049 13.3211C6.83699 13.3211 5.86349 12.2351 5.86349 10.9031C5.86349 9.56956 6.81899 8.48356 8.02049 8.48356C9.23099 8.48356 10.1955 9.57856 10.1775 10.9031C10.1775 12.2351 9.22199 13.3211 8.02049 13.3211ZM15.9945 13.3211C14.8125 13.3211 13.8375 12.2351 13.8375 10.9031C13.8375 9.56956 14.793 8.48356 15.9945 8.48356C17.205 8.48356 18.171 9.57856 18.1515 10.9031C18.1515 12.2351 17.205 13.3211 15.9945 13.3211Z" fill="gray"/>
</svg>
