<svg width="119" height="152" viewBox="0 0 119 152" fill="none" xmlns="http://www.w3.org/2000/svg">
<path fill-rule="evenodd" clip-rule="evenodd" d="M93.7241 77.3089L58.4875 98.5801L26.0261 78.6697L1 1.50587L34.432 36.0523L35.5709 65.6634L60.6265 83.8856L85.682 65.6634V36.0523L118.473 1L93.7241 77.3089ZM97.6457 74.9416L113.015 65.6634L117.598 13.4222L97.6457 74.9416ZM4.82093 65.6634L1.00135 11.2343L22.0891 76.2549L4.82093 65.6634Z" fill="#8684FF"/>
<path d="M58.4875 98.5801L58.2261 99.0063L58.4855 99.1654L58.7459 99.0082L58.4875 98.5801ZM93.7241 77.3089L93.9825 77.737L94.1422 77.6406L94.1997 77.4632L93.7241 77.3089ZM26.0261 78.6697L25.5505 78.824L25.6074 78.9995L25.7647 79.0959L26.0261 78.6697ZM1 1.50587L1.3593 1.15816L0.524389 1.66012L1 1.50587ZM34.432 36.0523L34.9317 36.0331L34.9243 35.842L34.7913 35.7046L34.432 36.0523ZM35.5709 65.6634L35.0713 65.6826L35.0806 65.9251L35.2768 66.0678L35.5709 65.6634ZM60.6265 83.8856L60.3324 84.29L60.6265 84.5039L60.9206 84.29L60.6265 83.8856ZM85.682 65.6634L85.9761 66.0678L86.182 65.918V65.6634H85.682ZM85.682 36.0523L85.3169 35.7107L85.182 35.8549V36.0523H85.682ZM118.473 1L118.949 1.15425L118.108 0.658421L118.473 1ZM97.6457 74.9416L97.1701 74.7873L96.7566 76.0624L97.9041 75.3696L97.6457 74.9416ZM113.015 65.6634L113.274 66.0915L113.491 65.9602L113.513 65.7071L113.015 65.6634ZM117.598 13.4222L118.096 13.4659L117.122 13.2679L117.598 13.4222ZM1.00135 11.2343L1.47696 11.0801L0.502575 11.2693L1.00135 11.2343ZM4.82093 65.6634L4.32216 65.6984L4.34017 65.9551L4.55951 66.0896L4.82093 65.6634ZM22.0891 76.2549L21.8277 76.6812L22.9827 77.3896L22.5647 76.1007L22.0891 76.2549ZM58.7459 99.0082L93.9825 77.737L93.4657 76.8809L58.2291 98.1521L58.7459 99.0082ZM25.7647 79.0959L58.2261 99.0063L58.749 98.1539L26.2875 78.2435L25.7647 79.0959ZM0.524389 1.66012L25.5505 78.824L26.5017 78.5155L1.47561 1.35162L0.524389 1.66012ZM34.7913 35.7046L1.3593 1.15816L0.640699 1.85358L34.0727 36.4L34.7913 35.7046ZM36.0706 65.6442L34.9317 36.0331L33.9324 36.0715L35.0713 65.6826L36.0706 65.6442ZM60.9206 83.4813L35.865 65.259L35.2768 66.0678L60.3324 84.29L60.9206 83.4813ZM85.388 65.259L60.3324 83.4813L60.9206 84.29L85.9761 66.0678L85.388 65.259ZM85.182 36.0523V65.6634H86.182V36.0523H85.182ZM118.108 0.658421L85.3169 35.7107L86.0472 36.3939L118.838 1.34158L118.108 0.658421ZM117.997 0.845748L93.2485 77.1547L94.1997 77.4632L118.949 1.15425L117.997 0.845748ZM97.9041 75.3696L113.274 66.0915L112.757 65.2354L97.3873 74.5135L97.9041 75.3696ZM113.513 65.7071L118.096 13.4659L117.1 13.3785L112.517 65.6197L113.513 65.7071ZM98.1213 75.0958L118.074 13.5764L117.122 13.2679L97.1701 74.7873L98.1213 75.0958ZM0.502575 11.2693L4.32216 65.6984L5.31971 65.6284L1.50012 11.1993L0.502575 11.2693ZM22.5647 76.1007L1.47696 11.0801L0.525737 11.3886L21.6135 76.4092L22.5647 76.1007ZM4.55951 66.0896L21.8277 76.6812L22.3505 75.8287L5.08235 65.2372L4.55951 66.0896Z" fill="#8684FF"/>
<rect x="31.1018" y="94.1356" width="29.7323" height="13.6667" transform="rotate(36.1324 31.1018 94.1356)" fill="#8684FF"/>
<path fill-rule="evenodd" clip-rule="evenodd" d="M58.3486 107.802L2.54309 75.9134V151.08L58.3486 144.247L113.015 151.08V75.9134L58.3486 107.802ZM43.5432 118.052C43.5432 126.229 37.4244 132.858 29.8765 132.858C22.3286 132.858 16.2098 126.229 16.2098 118.052C16.2098 109.875 22.3286 103.247 29.8765 103.247C37.4244 103.247 43.5432 109.875 43.5432 118.052ZM86.004 132.858C78.4561 132.858 72.3373 126.229 72.3373 118.052C72.3373 109.875 78.4561 103.247 86.004 103.247C93.5519 103.247 99.6707 109.875 99.6707 118.052C99.6707 126.229 93.5519 132.858 86.004 132.858Z" fill="#8684FF"/>
<path d="M2.54309 75.9134L2.79116 75.4793L2.04309 75.0518V75.9134H2.54309ZM58.3486 107.802L58.1006 108.236L58.3512 108.38L58.6006 108.234L58.3486 107.802ZM2.54309 151.08H2.04309V151.645L2.60386 151.576L2.54309 151.08ZM58.3486 144.247L58.4107 143.751L58.3493 143.743L58.2879 143.75L58.3486 144.247ZM113.015 151.08L112.953 151.576L113.515 151.646V151.08H113.015ZM113.015 75.9134H113.515V75.0429L112.763 75.4815L113.015 75.9134ZM2.29502 76.3475L58.1006 108.236L58.5967 107.368L2.79116 75.4793L2.29502 76.3475ZM3.04309 151.08V75.9134H2.04309V151.08H3.04309ZM58.2879 143.75L2.48232 150.584L2.60386 151.576L58.4094 144.743L58.2879 143.75ZM113.077 150.584L58.4107 143.751L58.2866 144.743L112.953 151.576L113.077 150.584ZM112.515 75.9134V151.08H113.515V75.9134H112.515ZM58.6006 108.234L113.267 76.3453L112.763 75.4815L58.0967 107.37L58.6006 108.234ZM29.8765 133.358C37.7375 133.358 44.0432 126.467 44.0432 118.052H43.0432C43.0432 125.991 37.1113 132.358 29.8765 132.358V133.358ZM15.7098 118.052C15.7098 126.467 22.0155 133.358 29.8765 133.358V132.358C22.6417 132.358 16.7098 125.991 16.7098 118.052H15.7098ZM29.8765 102.747C22.0155 102.747 15.7098 109.638 15.7098 118.052H16.7098C16.7098 110.113 22.6417 103.747 29.8765 103.747V102.747ZM44.0432 118.052C44.0432 109.638 37.7375 102.747 29.8765 102.747V103.747C37.1113 103.747 43.0432 110.113 43.0432 118.052H44.0432ZM71.8373 118.052C71.8373 126.467 78.143 133.358 86.004 133.358V132.358C78.7692 132.358 72.8373 125.991 72.8373 118.052H71.8373ZM86.004 102.747C78.143 102.747 71.8373 109.638 71.8373 118.052H72.8373C72.8373 110.113 78.7692 103.747 86.004 103.747V102.747ZM100.171 118.052C100.171 109.638 93.865 102.747 86.004 102.747V103.747C93.2388 103.747 99.1707 110.113 99.1707 118.052H100.171ZM86.004 133.358C93.865 133.358 100.171 126.467 100.171 118.052H99.1707C99.1707 125.991 93.2388 132.358 86.004 132.358V133.358Z" fill="#8684FF"/>
<rect width="29.7323" height="13.6667" transform="matrix(-0.807656 0.589654 0.589654 0.807656 85.7787 94.1356)" fill="#8684FF"/>
</svg>
